<svg xmlns="http://www.w3.org/2000/svg" viewBox="0 0 20.02 24.03">
    <defs>
        <style>.cls-1{fill:#016FA4;}</style>
    </defs>
    <title>jymm</title>
    <g id="图层_2" data-name="图层 2">
        <g id="jymm">
            <path class="cls-1"
                  d="M17.51,7H16V5.55a6,6,0,0,0-12,0V7H2.5A2.69,2.69,0,0,0,0,9.87V21.2A2.69,2.69,0,0,0,2.5,24h15A2.68,2.68,0,0,0,20,21.2V9.87A2.68,2.68,0,0,0,17.51,7ZM11,16.75V19a1,1,0,0,1-2,0V16.75A2,2,0,1,1,12,15,2,2,0,0,1,11,16.75ZM13,7H7V6a3,3,0,1,1,6,0Z"/>
        </g>
    </g>
</svg>