<svg xmlns="http://www.w3.org/2000/svg" xmlns:xlink="http://www.w3.org/1999/xlink" viewBox="0 0 44 44"><defs><style>.cls-1{fill:none;}.cls-2{fill:#ebf2f1;}.cls-3{clip-path:url(#clip-path);}.cls-4{fill:#758a98;opacity:0.8;}.cls-4,.cls-6,.cls-7,.cls-8{isolation:isolate;}.cls-5{fill:#fff;}.cls-6{fill:#b8bdbf;opacity:0.6;}.cls-7,.cls-8{fill:#66727a;}.cls-7{opacity:0.9;}</style><clipPath id="clip-path"><circle id="椭圆_1" data-name="椭圆 1" class="cls-1" cx="22" cy="22" r="22"/></clipPath></defs><title>toux</title><g id="图层_2" data-name="图层 2"><g id="toux"><circle id="椭圆_1-2" data-name="椭圆 1" class="cls-2" cx="22" cy="22" r="22"/><g class="cls-3"><g id="组_34" data-name="组 34"><path id="形状_6" data-name="形状 6" class="cls-4" d="M21.9,44a22.22,22.22,0,0,0,14.61-5.38l-.31-3.85A5.86,5.86,0,0,0,30.26,29H13.73A5.86,5.86,0,0,0,7.8,34.77l-.31,3.95A21.94,21.94,0,0,0,21.9,44Z"/><path id="形状_9" data-name="形状 9" class="cls-5" d="M21.74,33h-.45a3.84,3.84,0,0,1-3.77-3.63L18,22.62A3.46,3.46,0,0,1,21.27,19h.47a3.48,3.48,0,0,1,3.32,3.62h0l.46,6.76A3.86,3.86,0,0,1,21.74,33Z"/><path id="形状_8" data-name="形状 8" class="cls-6" d="M25.51,25.18l-.28-3.48A3.53,3.53,0,0,0,21.87,18h-.49A3.53,3.53,0,0,0,18,21.68v0l-.47,6.86A2.43,2.43,0,0,0,17.89,30H19.4A6.64,6.64,0,0,0,25.51,25.18Z"/><path id="形状_10" data-name="形状 10" class="cls-7" d="M24.93,7H20a4.07,4.07,0,0,0-3.42,1.93,4.1,4.1,0,0,0-4,4.17v2.74a4.09,4.09,0,0,0,4,4.16h10a4,4,0,0,0,4-4.07.28.28,0,0,0,0-.09V12.7A5.59,5.59,0,0,0,25,7Z"/><path id="形状_7" data-name="形状 7" class="cls-5" d="M16.32,14H26.68a1.8,1.8,0,0,1,1.83,1.68v6a6.23,6.23,0,0,1-1.93,4.48A6.82,6.82,0,0,1,21.89,28h-.78a6.73,6.73,0,0,1-4.69-1.87,6.23,6.23,0,0,1-1.93-4.48v-6A1.73,1.73,0,0,1,16.25,14Z"/><path id="形状_10_拷贝" data-name="形状 10 拷贝" class="cls-8" d="M24.93,7H20a4.07,4.07,0,0,0-3.42,1.93,4.1,4.1,0,0,0-4,4.17v2.74c0,2.34,4.83.15,7,.15l5-1c2.25,0,6,4.33,6,2l0-4.3A5.59,5.59,0,0,0,25,7Z"/></g></g></g></g></svg>