<svg xmlns="http://www.w3.org/2000/svg" width="20" height="24" viewBox="0 0 20 24">
  <defs>
    <style>
      .cls-1 {
        fill: #016FA4;
        fill-rule: evenodd;
      }
    </style>
  </defs>
  <path id="user" class="cls-1" d="M869.246,299.684c-0.145-.049-1.06-0.471-0.488-2.252h-0.007a10.057,10.057,0,0,0,2.631-6.594c0-3.83-2.489-5.838-5.38-5.838s-5.368,2.008-5.368,5.838a10.023,10.023,0,0,0,2.635,6.611,1.582,1.582,0,0,1-.68,2.235c-3.03,1.123-6.583,3.166-6.583,5.184v0.757c0,2.749,5.205,3.375,10.024,3.375s9.964-.626,9.964-3.375v-0.757C875.994,302.79,872.423,300.762,869.246,299.684Z" transform="translate(-856 -285)"/>
</svg>
